<?xml version="1.0" encoding="UTF-8"?>
<svg version="1.1" xmlns="http://www.w3.org/2000/svg" width="400" height="400">
<path d="M0 0 C2.95901563 8.87704689 0.58750018 18.31339225 -2 27 C-1.52691406 27.35449219 -1.05382812 27.70898438 -0.56640625 28.07421875 C12.78237614 38.82089931 20.75491196 55.41013816 24 72 C25.77594859 90.01063013 20.41602009 107.40363988 9.5625 121.875 C8.39612052 123.26796093 7.20881674 124.64370235 6 126 C5.41863281 126.67417969 4.83726562 127.34835938 4.23828125 128.04296875 C-4.82263643 137.86371182 -16.42244241 143.12152719 -29 147 C-30.03833984 147.36931641 -30.03833984 147.36931641 -31.09765625 147.74609375 C-46.25507726 152.57648066 -62.70437024 147.63765771 -76.5 141.125 C-81.81197107 138.2803379 -86.47657639 134.97178658 -91 131 C-91.67675781 130.41734375 -92.35351562 129.8346875 -93.05078125 129.234375 C-105.09313126 118.10396995 -110.94385348 102.79009033 -114 87 C-114.20109375 86.28070313 -114.4021875 85.56140625 -114.609375 84.8203125 C-114.73828125 84.21960938 -114.8671875 83.61890625 -115 83 C-114.505 82.505 -114.505 82.505 -114 82 C-113.78621306 80.16058559 -113.57861083 78.32020554 -113.4050293 76.4765625 C-112.3490896 65.36490082 -110.01678725 55.62140118 -104.05078125 46.03515625 C-102.86363515 43.97356249 -102.86363515 43.97356249 -102.49609375 41.3359375 C-102.33238281 40.56507812 -102.16867188 39.79421875 -102 39 C-100.36209288 37.95355934 -98.68991979 36.9601817 -97 36 C-96.29875 35.113125 -95.5975 34.22625 -94.875 33.3125 C-88.43958499 25.2331472 -78.35313789 19.96344848 -69 16 C-68.34 16 -67.68 16 -67 16 C-66.80664062 15.38511719 -66.61328125 14.77023438 -66.4140625 14.13671875 C-66.15367187 13.32847656 -65.89328125 12.52023438 -65.625 11.6875 C-65.24214844 10.48673828 -65.24214844 10.48673828 -64.8515625 9.26171875 C-64 7 -64 7 -62 4 C-58.73742047 5.05554044 -56.9552062 6.04362047 -54.46484375 8.46875 C-50.36358876 11.94345942 -45.90412422 12.33479893 -40.6875 12.8125 C-39.26920898 12.94507202 -39.26920898 12.94507202 -37.82226562 13.08032227 C-33.64677425 13.32079749 -30.85078415 13.43507302 -27.08203125 11.5078125 C-24.96706282 9.46485537 -24.96706282 9.46485537 -23.09765625 7.18359375 C-17.36907046 1.22031729 -8.00817882 -0.78511557 0 0 Z M-48 15 C-47.01 16.485 -47.01 16.485 -46 18 C-43.11404054 18.58481121 -43.11404054 18.58481121 -39.875 18.6875 C-38.77929688 18.75324219 -37.68359375 18.81898437 -36.5546875 18.88671875 C-35.71164063 18.92410156 -34.86859375 18.96148437 -34 19 C-33.67 18.01 -33.34 17.02 -33 16 C-37.96073422 14.67713754 -42.91111512 14.91106803 -48 15 Z M-93 35 C-93.33 35.99 -93.66 36.98 -94 38 C-90.10550294 37.47895237 -88.20648893 36.63779432 -85.4375 33.875 C-81.20545664 29.92671434 -76.5484128 27.35392361 -71.44140625 24.67578125 C-68.85208092 23.23773139 -68.85208092 23.23773139 -68.15234375 20.79296875 C-68.10207031 20.20128906 -68.05179688 19.60960938 -68 19 C-75.78201264 19 -87.91380841 29.99146019 -93 35 Z M-5 29 C-5.33 29.99 -5.66 30.98 -6 32 C-5.43152344 32.52207031 -4.86304688 33.04414062 -4.27734375 33.58203125 C7.12921298 44.45539335 15.59179399 58.54838311 16.23828125 74.625 C16.45333715 85.07515962 16.17537825 94.23455942 12 104 C11.649375 104.86496094 11.29875 105.72992188 10.9375 106.62109375 C4.11460269 121.80677838 -7.95446024 131.03773414 -22.76171875 137.7734375 C-37.07532025 143.19499464 -54.98241197 143.29398986 -69 137 C-88.82919335 127.88180283 -97.65600793 114.4588707 -105.75 94.75 C-106.70390672 91.88588071 -106.70390672 91.88588071 -109 91 C-108.14216796 105.86908866 -99.41471415 119.5618652 -88.8671875 129.64453125 C-72.50524312 143.0862921 -54.56336012 146.00037968 -34 145 C-29.98826757 144.52913939 -26.70174232 143.59640986 -23 142 C-22.39494629 141.74186523 -21.78989258 141.48373047 -21.16650391 141.21777344 C-11.79750226 137.13170317 -4.12428163 132.46679517 3 125 C3.5465625 124.47277344 4.093125 123.94554687 4.65625 123.40234375 C16.80036322 110.77375793 20.51044589 94.11884552 20.42236328 77.22119141 C19.96778385 59.8313 12.86740608 45.60779683 1 33 C-0.96694824 31.37495483 -2.74829384 30.21245716 -5 29 Z M-102 47 C-106.88881567 57.80766483 -110.38131756 66.988497 -110 79 C-106.7029003 77.28334461 -106.7029003 77.28334461 -106.19140625 73.875 C-105.88009766 71.956875 -105.88009766 71.956875 -105.5625 70 C-104.58158018 64.32234912 -103.20058156 59.37076627 -100.671875 54.1484375 C-99.8279797 51.44993507 -100.26319928 49.69215647 -101 47 C-101.33 47 -101.66 47 -102 47 Z " fill="#8A4200" transform="translate(245,75)"/>
<path d="M0 0 C0.44194852 9.7842492 0.44367411 18.00350891 -4 27 C-4.515625 28.051875 -5.03125 29.10375 -5.5625 30.1875 C-12.87368111 38.62347821 -23.08563722 43.85416328 -33.625 47.125 C-45.3972571 53.66514283 -54.93610081 72.49139519 -58.61743164 85.11767578 C-59.92880838 90.47600184 -60.35098407 95.62005417 -60.3125 101.125 C-60.30903564 101.94613281 -60.30557129 102.76726562 -60.30200195 103.61328125 C-60.10043611 115.10587503 -57.22065488 126.01322695 -54 137 C-60.80014078 130.93605679 -62.00701024 120.59649008 -63 112 C-63.21214552 107.41140761 -63.19253101 102.84210856 -63.125 98.25 C-63.11597656 97.0640625 -63.10695312 95.878125 -63.09765625 94.65625 C-63.07438497 91.77061093 -63.04169684 88.88542145 -63 86 C-63.66604248 86.41137207 -64.33208496 86.82274414 -65.01831055 87.24658203 C-65.90301025 87.78653809 -66.78770996 88.32649414 -67.69921875 88.8828125 C-69.00765747 89.68549561 -69.00765747 89.68549561 -70.3425293 90.50439453 C-78.28113202 94.97218326 -86.99808998 96.30262933 -96 95 C-103.15929065 92.54899579 -108.77566528 89.33650207 -113 83 C-111.19587357 79.73539027 -110.16605307 78.11070205 -107 76 C-106.11369458 72.77261458 -106.11369458 72.77261458 -105.5625 69 C-104.76589024 64.34943197 -103.80377295 60.15192923 -101.75 55.875 C-99.1233196 49.98486819 -100.10149182 44.2309589 -101 38 C-100.21882812 37.56042969 -99.43765625 37.12085938 -98.6328125 36.66796875 C-95.83981632 35.10187141 -95.83981632 35.10187141 -93.875 32.3125 C-87.43958499 24.2331472 -77.35313789 18.96344848 -68 15 C-67.34 15 -66.68 15 -66 15 C-65.80664062 14.38511719 -65.61328125 13.77023438 -65.4140625 13.13671875 C-65.15367187 12.32847656 -64.89328125 11.52023438 -64.625 10.6875 C-64.24214844 9.48673828 -64.24214844 9.48673828 -63.8515625 8.26171875 C-63 6 -63 6 -61 3 C-57.73742047 4.05554044 -55.9552062 5.04362047 -53.46484375 7.46875 C-49.36289359 10.94404839 -44.90454129 11.33300435 -39.6875 11.8125 C-38.74849854 11.90305664 -37.80949707 11.99361328 -36.84204102 12.08691406 C-32.48133641 12.34743655 -29.73366971 12.36240448 -25.765625 10.40234375 C-23.59190205 8.39274418 -21.85018265 6.30046806 -20 4 C-17.00262255 2.08917187 -14.042028 1.48307286 -10.5625 0.875 C-9.17224609 0.62363281 -9.17224609 0.62363281 -7.75390625 0.3671875 C-5.12946175 0.01726157 -2.64357647 -0.06716891 0 0 Z M-47 14 C-46.01 15.485 -46.01 15.485 -45 17 C-42.11404054 17.58481121 -42.11404054 17.58481121 -38.875 17.6875 C-37.77929688 17.75324219 -36.68359375 17.81898437 -35.5546875 17.88671875 C-34.71164063 17.92410156 -33.86859375 17.96148437 -33 18 C-32.67 17.01 -32.34 16.02 -32 15 C-36.96073422 13.67713754 -41.91111512 13.91106803 -47 14 Z M-92 34 C-92.33 34.99 -92.66 35.98 -93 37 C-89.10550294 36.47895237 -87.20648893 35.63779432 -84.4375 32.875 C-80.20545664 28.92671434 -75.5484128 26.35392361 -70.44140625 23.67578125 C-67.85208092 22.23773139 -67.85208092 22.23773139 -67.15234375 19.79296875 C-67.10207031 19.20128906 -67.05179688 18.60960938 -67 18 C-74.78201264 18 -86.91380841 28.99146019 -92 34 Z " fill="#8C4300" transform="translate(244,76)"/>
<path d="M0 0 C0.44194852 9.7842492 0.44367411 18.00350891 -4 27 C-4.515625 28.051875 -5.03125 29.10375 -5.5625 30.1875 C-12.87368111 38.62347821 -23.08563722 43.85416328 -33.625 47.125 C-45.3972571 53.66514283 -54.93610081 72.49139519 -58.61743164 85.11767578 C-59.92880838 90.47600184 -60.35098407 95.62005417 -60.3125 101.125 C-60.30903564 101.94613281 -60.30557129 102.76726562 -60.30200195 103.61328125 C-60.10043611 115.10587503 -57.22065488 126.01322695 -54 137 C-60.80014078 130.93605679 -62.00701024 120.59649008 -63 112 C-63.21214552 107.41140761 -63.19253101 102.84210856 -63.125 98.25 C-63.11597656 97.0640625 -63.10695312 95.878125 -63.09765625 94.65625 C-63.07438497 91.77061093 -63.04169684 88.88542145 -63 86 C-63.66604248 86.41137207 -64.33208496 86.82274414 -65.01831055 87.24658203 C-65.90301025 87.78653809 -66.78770996 88.32649414 -67.69921875 88.8828125 C-69.00765747 89.68549561 -69.00765747 89.68549561 -70.3425293 90.50439453 C-78.28113202 94.97218326 -86.99808998 96.30262933 -96 95 C-103.15929065 92.54899579 -108.77566528 89.33650207 -113 83 C-105.78080423 76.09468231 -96.85327492 71.5486045 -86.65234375 71.73046875 C-76.44962633 72.76726919 -68.80548149 77.66957013 -61 84 C-60.9071875 83.15824219 -60.814375 82.31648438 -60.71875 81.44921875 C-59.90053674 77.52268446 -58.39826629 74.30328372 -56.5 70.8125 C-56.14832764 70.15975098 -55.79665527 69.50700195 -55.43432617 68.83447266 C-51.46738897 61.70672317 -46.65129284 54.97259432 -40.2890625 49.79296875 C-37.03280322 45.81988789 -37.24031763 42.4331512 -37.0625 37.4375 C-36.26137294 25.86194606 -33.07710944 16.81056921 -24.34765625 8.75390625 C-17.02842281 3.28579342 -9.19129778 -0.26260851 0 0 Z " fill="#E37407" transform="translate(244,76)"/>
<path d="M0 0 C2.95901563 8.87704689 0.58750018 18.31339225 -2 27 C-1.52691406 27.35449219 -1.05382812 27.70898438 -0.56640625 28.07421875 C12.78237614 38.82089931 20.75491196 55.41013816 24 72 C25.77594859 90.01063013 20.41602009 107.40363988 9.5625 121.875 C8.39612052 123.26796093 7.20881674 124.64370235 6 126 C5.41863281 126.67417969 4.83726562 127.34835938 4.23828125 128.04296875 C-4.82263643 137.86371182 -16.42244241 143.12152719 -29 147 C-30.03833984 147.36931641 -30.03833984 147.36931641 -31.09765625 147.74609375 C-46.25507726 152.57648066 -62.70437024 147.63765771 -76.5 141.125 C-81.81197107 138.2803379 -86.47657639 134.97178658 -91 131 C-91.67675781 130.41734375 -92.35351562 129.8346875 -93.05078125 129.234375 C-105.09313126 118.10396995 -110.94385348 102.79009033 -114 87 C-114.20109375 86.28070313 -114.4021875 85.56140625 -114.609375 84.8203125 C-114.73828125 84.21960938 -114.8671875 83.61890625 -115 83 C-114.505 82.505 -114.505 82.505 -114 82 C-113.78621306 80.16058559 -113.57861083 78.32020554 -113.4050293 76.4765625 C-112.29907498 64.83859657 -109.81878519 53.76431484 -103 44 C-102.01 43.505 -102.01 43.505 -101 43 C-101.57015471 47.32420708 -102.64698672 50.84361745 -104.4375 54.8125 C-107.04680804 60.90838343 -108.46642876 66.59368119 -109.48828125 73.1171875 C-109.65714844 74.19226563 -109.82601562 75.26734375 -110 76.375 C-110.144375 77.37273437 -110.28875 78.37046875 -110.4375 79.3984375 C-111 82 -111 82 -113 85 C-112.1028125 85.86625 -112.1028125 85.86625 -111.1875 86.75 C-109.03763367 89.94408712 -108.51450633 91.63987154 -107.75 95.3125 C-104.08254072 111.17231061 -95.11912827 124.83463433 -81.5625 133.9375 C-65.42646116 143.38860846 -46.61535727 147.37558073 -28.125 143 C-25.62869895 142.17378727 -25.62869895 142.17378727 -23 141 C-22.39494629 140.74186523 -21.78989258 140.48373047 -21.16650391 140.21777344 C-11.83896176 136.14978476 -4.00301289 131.53669975 3 124 C3.94746094 122.98873047 3.94746094 122.98873047 4.9140625 121.95703125 C8.68604338 117.52869246 11.32096495 112.71955479 13.8125 107.5 C14.24792114 106.59290283 14.24792114 106.59290283 14.69213867 105.66748047 C21.19730622 91.32885503 21.30671962 72.81997206 16.25390625 58.03125 C11.56628357 46.69917772 4.86784145 36.47458641 -5 29 C-4.68950274 27.56206608 -4.3765224 26.1246682 -4.0625 24.6875 C-3.88847656 23.88699219 -3.71445313 23.08648437 -3.53515625 22.26171875 C-3 20 -3 20 -2 17 C-1.77202438 14.26710707 -1.58331813 11.54957796 -1.4375 8.8125 C-1.37272461 7.68811523 -1.37272461 7.68811523 -1.30664062 6.54101562 C-1.20077315 4.69421625 -1.0999024 2.84713166 -1 1 C-5.29 1.66 -9.58 2.32 -14 3 C-10.07503936 -0.92496064 -5.24412188 -0.08740203 0 0 Z " fill="#7D411B" transform="translate(245,75)"/>
<path d="M0 0 C0.49096898 10.86950764 0.80690102 20.8578487 -6.25 29.875 C-13.73115844 35.65589516 -22.27839985 41 -32 41 C-32.87914728 18.58174448 -32.87914728 18.58174448 -26.046875 10.765625 C-18.56337503 3.59611803 -10.34708073 -0.06852371 0 0 Z " fill="#FD8400" transform="translate(244,76)"/>
<path d="M0 0 C10.56 0 21.12 0 32 0 C31.67 3.63 31.34 7.26 31 11 C27.7 11 24.4 11 21 11 C20.67 10.01 20.34 9.02 20 8 C20.33 7.34 20.66 6.68 21 6 C17.37 6 13.74 6 10 6 C9.93941406 6.99 9.87882812 7.98 9.81640625 9 C9.39539534 15.69466638 8.94925871 22.35518903 8 29 C11.3 29 14.6 29 18 29 C18.2062504 23.84374012 17.69930719 21.09792156 16 16 C20.62 16 25.24 16 30 16 C29.09765625 29.79296875 29.09765625 29.79296875 28 35 C23.74585377 35.02465622 19.49174502 35.04283899 15.23754883 35.05493164 C13.78929927 35.05997101 12.34105483 35.06680253 10.89282227 35.07543945 C8.81525412 35.08752247 6.73775303 35.09323211 4.66015625 35.09765625 C3.40855713 35.10289307 2.15695801 35.10812988 0.86743164 35.11352539 C-2 35 -2 35 -3 34 C-3.31110259 26.54131548 -2.44615508 19.32714637 -1.5 11.9375 C-1.005 7.998125 -0.51 4.05875 0 0 Z " fill="#222222" transform="translate(116,250)"/>
<path d="M0 0 C6.32045716 3.81572287 11.81944155 8.86063392 15.31640625 15.3984375 C15.31640625 16.3884375 15.31640625 17.3784375 15.31640625 18.3984375 C6.58333021 22.90583159 -2.36487175 24.36631199 -11.89453125 21.3984375 C-19.89958139 17.77661533 -28.24232163 11.78271558 -31.95703125 3.58984375 C-32.19679687 2.86667969 -32.4365625 2.14351562 -32.68359375 1.3984375 C-22.14653138 -3.4185053 -10.80499781 -5.01978481 0 0 Z " fill="#FC8300" transform="translate(223.68359375,147.6015625)"/>
<path d="M0 0 C8.03241968 3.93424638 14.01055024 9.9837619 17.3359375 18.3984375 C19.98435185 28.77399021 17.92259998 38.64706003 13 48 C12.01 48.495 12.01 48.495 11 49 C3.1862032 42.83225684 -3.96377134 35.06431049 -6 25 C-6.99164369 15.7997502 -6.16930403 8.77937885 -1 1 C-0.67 0.67 -0.34 0.34 0 0 Z " fill="#FC8300" transform="translate(184,81)"/>
<path d="M0 0 C8.27550714 -0.94039854 16.46916021 2.68289793 22.9375 7.75 C28.92124441 13.42725994 32.7897451 21.65662539 33.11328125 29.87890625 C33.12366735 32.58967907 33.08818331 35.29081286 33 38 C24.5252206 38.68344995 18.66021916 36.66414178 11.953125 31.390625 C4.91585502 24.83453587 0.54717768 15.19480445 -0.18359375 5.5859375 C-0.18688524 3.72295581 -0.10333979 1.86011626 0 0 Z " fill="#FC8400" transform="translate(187,164)"/>
<path d="M0 0 C2.15487341 1.90155757 4.22836686 3.83730027 6.2421875 5.88671875 C4.81466357 9.48622802 3.26510407 10.78495039 -0.1328125 12.57421875 C-0.90367187 12.99058594 -1.67453125 13.40695313 -2.46875 13.8359375 C-9.87433595 17.23543003 -19.45184028 17.28378969 -27.12890625 14.79296875 C-33.30830962 11.83315261 -39.20607851 8.08105048 -43.7578125 2.88671875 C-43.7578125 2.22671875 -43.7578125 1.56671875 -43.7578125 0.88671875 C-41.69960169 -0.26744631 -39.63681778 -1.41163972 -37.5703125 -2.55078125 C-36.42175781 -3.18886719 -35.27320313 -3.82695313 -34.08984375 -4.484375 C-22.70141172 -10.05175619 -9.85994804 -7.55556925 0 0 Z " fill="#FC8300" transform="translate(247.7578125,130.11328125)"/>
<path d="M0 0 C11.21530077 -0.50093155 20.4295931 -0.49166644 29.75 6.625 C36.32545124 12.79628639 39.58589439 20.23254523 41 29 C28.55029136 29.51994143 19.17167327 29.50843045 9.125 21.25 C2.56340977 14.97823266 0.41502728 8.96458928 0 0 Z " fill="#FD8400" transform="translate(145,115)"/>
<path d="M0 0 C8.25 0 16.5 0 25 0 C26.54771621 3.09543241 25.86929401 6.25984998 25.625 9.625 C25.58117187 10.31207031 25.53734375 10.99914062 25.4921875 11.70703125 C25.16850822 16.49928279 24.63126897 21.23873404 24 26 C19.85418113 26.02886751 15.70838784 26.04675327 11.5625 26.0625 C9.78649414 26.07506836 9.78649414 26.07506836 7.97460938 26.08789062 C6.84990234 26.09111328 5.72519531 26.09433594 4.56640625 26.09765625 C3.00321655 26.10551147 3.00321655 26.10551147 1.40844727 26.11352539 C-1 26 -1 26 -2 25 C-2.63076631 16.49198933 -1.4548699 8.36550191 0 0 Z M10 6 C9.34 10.62 8.68 15.24 8 20 C9.65 20 11.3 20 13 20 C14.72928837 13.08840962 14.72928837 13.08840962 15 6 C13.35 6 11.7 6 10 6 Z " fill="#222222" transform="translate(172,259)"/>
<path d="M0 0 C3.25 2.25 3.25 2.25 5 4 C3.47824848 8.56525456 0.12343476 9.82198062 -4 12 C-11.53593456 15.71655252 -19.75433199 16.08761879 -28 15 C-32.28558649 13.41018566 -36.12914258 11.421989 -40 9 C-40 6 -40 6 -38.63671875 4.53515625 C-26.00740115 -5.0064324 -14.4046312 -6.19734133 0 0 Z " fill="#FD8400" transform="translate(172,152)"/>
<path d="M0 0 C8.25 0 16.5 0 25 0 C24.0625 13.79464286 24.0625 13.79464286 23.375 19.1875 C22.74650229 22.9187969 22.74650229 22.9187969 24 26 C19.85418113 26.02886751 15.70838784 26.04675327 11.5625 26.0625 C9.78649414 26.07506836 9.78649414 26.07506836 7.97460938 26.08789062 C6.84990234 26.09111328 5.72519531 26.09433594 4.56640625 26.09765625 C3.00321655 26.10551147 3.00321655 26.10551147 1.40844727 26.11352539 C-1 26 -1 26 -2 25 C-2.09908783 23.21059028 -2.12970379 21.41714492 -2.125 19.625 C-2.12757813 18.64789063 -2.13015625 17.67078125 -2.1328125 16.6640625 C-2 14 -2 14 -1 11 C3.95 11 8.9 11 14 11 C14 9.35 14 7.7 14 6 C12.68 6 11.36 6 10 6 C10 6.99 10 7.98 10 9 C6.37 9 2.74 9 -1 9 C-0.67 6.03 -0.34 3.06 0 0 Z M9 17 C8.67 17.99 8.34 18.98 8 20 C9.32 20 10.64 20 12 20 C12 19.01 12 18.02 12 17 C11.01 17 10.02 17 9 17 Z " fill="#222222" transform="translate(264,259)"/>
<path d="M0 0 C8.25 0 16.5 0 25 0 C24.67 2.64 24.34 5.28 24 8 C20.7 8 17.4 8 14 8 C14 7.34 14 6.68 14 6 C12.68 6 11.36 6 10 6 C9.67 7.32 9.34 8.64 9 10 C13.62 10 18.24 10 23 10 C23.28870606 20.82647719 23.28870606 20.82647719 21 25 C20 26 20 26 17.86694336 26.11352539 C16.95050049 26.10828857 16.03405762 26.10305176 15.08984375 26.09765625 C14.10048828 26.09443359 13.11113281 26.09121094 12.09179688 26.08789062 C11.05087891 26.07951172 10.00996094 26.07113281 8.9375 26.0625 C7.89271484 26.05798828 6.84792969 26.05347656 5.77148438 26.04882812 C3.1809334 26.03699913 0.59049441 26.02051689 -2 26 C-2 23.36 -2 20.72 -2 18 C-1.01 18.33 -0.02 18.66 1 19 C3.05893621 19.22325814 5.12233653 19.40705759 7.1875 19.5625 C8.27417969 19.64628906 9.36085937 19.73007812 10.48046875 19.81640625 C11.72763672 19.90728516 11.72763672 19.90728516 13 20 C13 18.68 13 17.36 13 16 C8.38 16 3.76 16 -1 16 C-0.67 10.72 -0.34 5.44 0 0 Z " fill="#222222" transform="translate(234,259)"/>
<path d="M0 0 C8.25 0 16.5 0 25 0 C24.67 2.64 24.34 5.28 24 8 C20.7 8 17.4 8 14 8 C14 7.34 14 6.68 14 6 C12.68 6 11.36 6 10 6 C9.67 7.32 9.34 8.64 9 10 C13.62 10 18.24 10 23 10 C23.28870606 20.82647719 23.28870606 20.82647719 21 25 C20 26 20 26 17.86694336 26.11352539 C16.95050049 26.10828857 16.03405762 26.10305176 15.08984375 26.09765625 C14.10048828 26.09443359 13.11113281 26.09121094 12.09179688 26.08789062 C11.05087891 26.07951172 10.00996094 26.07113281 8.9375 26.0625 C7.89271484 26.05798828 6.84792969 26.05347656 5.77148438 26.04882812 C3.1809334 26.03699913 0.59049441 26.02051689 -2 26 C-2 23.36 -2 20.72 -2 18 C-1.01 18.33 -0.02 18.66 1 19 C3.05893621 19.22325814 5.12233653 19.40705759 7.1875 19.5625 C8.27417969 19.64628906 9.36085937 19.73007812 10.48046875 19.81640625 C11.72763672 19.90728516 11.72763672 19.90728516 13 20 C13 18.68 13 17.36 13 16 C8.38 16 3.76 16 -1 16 C-0.67 10.72 -0.34 5.44 0 0 Z " fill="#222222" transform="translate(204,259)"/>
<path d="M0 0 C3.96 0 7.92 0 12 0 C11.57741759 5.9865841 11.1571548 11.93223612 10.3828125 17.8828125 C10.27888184 18.71901123 10.17495117 19.55520996 10.06787109 20.41674805 C9.85923995 22.07121547 9.63606617 23.7239271 9.39697266 25.37426758 C9.30206543 26.14665771 9.2071582 26.91904785 9.109375 27.71484375 C9.01624023 28.39667725 8.92310547 29.07851074 8.82714844 29.78100586 C8.92093265 32.78286714 8.92093265 32.78286714 12 38 C7.38 38 2.76 38 -2 38 C-2.19717078 30.21175423 -1.70871766 22.81054163 -0.71582031 15.10791016 C-0.073606 10.01076875 0.1864828 5.12827693 0 0 Z " fill="#222222" transform="translate(154,247)"/>
<path d="M0 0 C2.05078125 0.03255208 4.1015625 0.06510417 6.15234375 0.09765625 C6.15234375 1.08765625 6.15234375 2.07765625 6.15234375 3.09765625 C3.18234375 2.60265625 3.18234375 2.60265625 0.15234375 2.09765625 C0.15234375 2.75765625 0.15234375 3.41765625 0.15234375 4.09765625 C1.60640625 4.49984375 1.60640625 4.49984375 3.08984375 4.91015625 C4.10046875 5.30203125 5.11109375 5.69390625 6.15234375 6.09765625 C6.48234375 7.08765625 6.81234375 8.07765625 7.15234375 9.09765625 C9.46234375 9.42765625 11.77234375 9.75765625 14.15234375 10.09765625 C12.7603846 7.31373795 10.99658596 7.11866628 8.15234375 6.09765625 C8.10962275 4.4315372 8.11170543 2.7638274 8.15234375 1.09765625 C9.15234375 0.09765625 9.15234375 0.09765625 11 0 C13.05078125 0.03255208 15.1015625 0.06510417 17.15234375 0.09765625 C17.15234375 1.08765625 17.15234375 2.07765625 17.15234375 3.09765625 C14.18234375 2.60265625 14.18234375 2.60265625 11.15234375 2.09765625 C11.15234375 2.75765625 11.15234375 3.41765625 11.15234375 4.09765625 C12.10109375 4.40703125 13.04984375 4.71640625 14.02734375 5.03515625 C17.15234375 6.09765625 17.15234375 6.09765625 19.15234375 7.09765625 C20.14234375 4.78765625 21.13234375 2.47765625 22.15234375 0.09765625 C23.47234375 0.09765625 24.79234375 0.09765625 26.15234375 0.09765625 C26.82588874 1.53194626 27.49094076 2.97022682 28.15234375 4.41015625 C28.52359375 5.21066406 28.89484375 6.01117188 29.27734375 6.8359375 C30.15234375 9.09765625 30.15234375 9.09765625 30.15234375 12.09765625 C29.16234375 12.09765625 28.17234375 12.09765625 27.15234375 12.09765625 C26.82234375 11.43765625 26.49234375 10.77765625 26.15234375 10.09765625 C24.83234375 10.09765625 23.51234375 10.09765625 22.15234375 10.09765625 C21.82234375 10.75765625 21.49234375 11.41765625 21.15234375 12.09765625 C20.51296875 11.91203125 19.87359375 11.72640625 19.21484375 11.53515625 C18.19390625 11.31859375 18.19390625 11.31859375 17.15234375 11.09765625 C16.82234375 11.42765625 16.49234375 11.75765625 16.15234375 12.09765625 C13.4769546 12.14080769 10.82539554 12.14446066 8.15234375 12.09765625 C7.16234375 12.09765625 6.17234375 12.09765625 5.15234375 12.09765625 C2.48567708 12.09765625 -0.18098958 12.09765625 -2.84765625 12.09765625 C-3.17765625 11.10765625 -3.50765625 10.11765625 -3.84765625 9.09765625 C-1.53765625 9.42765625 0.77234375 9.75765625 3.15234375 10.09765625 C1.7603846 7.31373795 -0.00341404 7.11866628 -2.84765625 6.09765625 C-2.89037725 4.4315372 -2.88829457 2.7638274 -2.84765625 1.09765625 C-1.84765625 0.09765625 -1.84765625 0.09765625 0 0 Z M23.15234375 4.09765625 C23.15234375 4.75765625 23.15234375 5.41765625 23.15234375 6.09765625 C23.81234375 5.76765625 24.47234375 5.43765625 25.15234375 5.09765625 C24.49234375 4.76765625 23.83234375 4.43765625 23.15234375 4.09765625 Z " fill="#333333" transform="translate(205.84765625,302.90234375)"/>
<path d="M0 0 C1.98 1.32 3.96 2.64 6 4 C4.4409076 7.1181848 1.39019352 8.02026437 -1.625 9.5 C-2.53185547 9.96212891 -2.53185547 9.96212891 -3.45703125 10.43359375 C-11.73270074 14.54496047 -19.77552086 16.22643643 -29 15 C-34.55162604 13.00015289 -39.66870616 10.99694076 -43 6 C-38 8 -38 8 -35.76953125 9.046875 C-27.34119964 11.94745739 -17.36244821 10.52993352 -9.31640625 7.1484375 C-3.78383746 4.549951 -3.78383746 4.549951 0 0 Z " fill="#D06B12" transform="translate(177,156)"/>
<path d="M0 0 C2.31 0 4.62 0 7 0 C6.95359375 0.65484375 6.9071875 1.3096875 6.859375 1.984375 C6.48565008 11.43427656 8.48410073 20.88219533 14.44140625 28.47265625 C17.56883112 31.53737586 21.27094442 33.7444102 25 36 C25.99 36.66 26.98 37.32 28 38 C19.78518896 37.65043357 13.95963655 33.24731205 8.25 27.5625 C2.96577336 21.16969434 -0.28293759 11.35475511 -0.3125 3.0625 C-0.209375 2.051875 -0.10625 1.04125 0 0 Z " fill="#D06B12" transform="translate(187,164)"/>
<path d="M0 0 C15.84 0 31.68 0 48 0 C48 1.32 48 2.64 48 4 C32.16 4 16.32 4 0 4 C0 2.68 0 1.36 0 0 Z " fill="#333333" transform="translate(241,307)"/>
<path d="M0 0 C15.84 0 31.68 0 48 0 C48 1.32 48 2.64 48 4 C32.16 4 16.32 4 0 4 C0 2.68 0 1.36 0 0 Z " fill="#333333" transform="translate(111,307)"/>
<path d="M0 0 C2.98570046 1.19537185 4.29325862 3.06808291 6.32421875 5.54296875 C11.97605983 12.06360524 18.06672855 17.43253445 26.9296875 18.171875 C28.39429459 18.25802836 29.85915755 18.33991745 31.32421875 18.41796875 C32.07380859 18.46115234 32.82339844 18.50433594 33.59570312 18.54882812 C35.4425025 18.6546956 37.28958709 18.75556635 39.13671875 18.85546875 C33.05484759 22.91004952 27.32530206 22.60089679 20.13671875 21.85546875 C11.07096248 19.09205148 3.98655539 13.20855026 -1.86328125 5.85546875 C-3.13671875 3.046875 -3.13671875 3.046875 -3.86328125 0.85546875 C-1.86328125 -0.14453125 -1.86328125 -0.14453125 0 0 Z " fill="#D16B12" transform="translate(194.86328125,148.14453125)"/>
<path d="M0 0 C1.17330426 3.59930932 0.90298141 6.7480884 0.6875 10.5 C0.62126455 21.11974983 5.35542813 28.81488031 12.38671875 36.4765625 C14.12920315 38.20744051 14.12920315 38.20744051 17 40 C16.01 42.475 16.01 42.475 15 45 C6.47902024 40.30234681 0.39604817 32.42935743 -2.58203125 23.1953125 C-4.07970285 15.32903735 -4.01159026 7.02028295 0 0 Z " fill="#D16B12" transform="translate(181,85)"/>
<path d="M0 0 C2.4375 1.625 2.4375 1.625 4 4 C4.5625 6.9375 4.5625 6.9375 4 10 C1.9375 12.9375 1.9375 12.9375 -1 15 C-4.85210127 15.06641554 -6.99848005 14.87229157 -9.9375 12.3125 C-11.33817538 9.26397123 -11.4842732 7.32073048 -11 4 C-8.05899778 -0.47032338 -5.13105401 -0.73300772 0 0 Z " fill="#FA8300" transform="translate(237,176)"/>
<path d="M0 0 C0.804375 0.53625 1.60875 1.0725 2.4375 1.625 C2.98664063 1.98722656 3.53578125 2.34945312 4.1015625 2.72265625 C5.4441507 3.62600263 6.77098506 4.55297243 8.0859375 5.49609375 C18.11699918 12.55303364 27.05766281 14.16632107 39.1875 12.5 C40.115625 12.335 41.04375 12.17 42 12 C35.73311794 17.30274636 28.81227524 17.55795793 20.89453125 17.44140625 C11.66970457 16.39586421 3.09444243 10.9548343 -3 4 C-3 3.34 -3 2.68 -3 2 C-2.01 1.34 -1.02 0.68 0 0 Z " fill="#D06B12" transform="translate(207,129)"/>
<path d="M0 0 C4 5 4 5 5.5625 7.4375 C11.483054 13.66167215 19.28581 16.87787073 27.76953125 17.09765625 C29.11722242 17.09108215 30.46489707 17.07926444 31.8125 17.0625 C32.50537109 17.05798828 33.19824219 17.05347656 33.91210938 17.04882812 C35.60811068 17.03713156 37.30406703 17.01919924 39 17 C39.495 19.97 39.495 19.97 40 23 C27.55029136 23.51994143 18.17167327 23.50843045 8.125 15.25 C4.17139119 11.50631732 1.97366774 8.06288681 0 3 C0 2.01 0 1.02 0 0 Z " fill="#D26C12" transform="translate(146,121)"/>
<path d="M0 0 C1 3 1 3 0.29296875 4.9453125 C-0.43610883 6.38285769 -1.16527354 7.82035868 -1.89453125 9.2578125 C-4.62776743 16.03778351 -5.36324655 22.86597057 -5.3125 30.125 C-5.30903564 30.94613281 -5.30557129 31.76726562 -5.30200195 32.61328125 C-5.10043611 44.10587503 -2.22065488 55.01322695 1 66 C-5.71535324 60.01166506 -7.29172616 49.55111098 -8 41 C-9.48025822 12.91592854 -9.48025822 12.91592854 -1.75 1.75 C-1.1725 1.1725 -0.595 0.595 0 0 Z " fill="#E37406" transform="translate(189,147)"/>
<path d="M0 0 C1.875 1.0625 1.875 1.0625 3 3 C3.4375 6.5 3.4375 6.5 3 10 C1.375 12 1.375 12 -1 13 C-4.125 12.875 -4.125 12.875 -7 12 C-9.31282587 8.53076119 -9.42478586 7.07794425 -9 3 C-6.79086995 -0.68188342 -4.01844539 -0.50230567 0 0 Z " fill="#F98200" transform="translate(173,190)"/>
<path d="M0 0 C-0.65226562 0.36351563 -1.30453125 0.72703125 -1.9765625 1.1015625 C-2.85054687 1.60429688 -3.72453125 2.10703125 -4.625 2.625 C-5.48351562 3.11226563 -6.34203125 3.59953125 -7.2265625 4.1015625 C-9.63696098 5.75149724 -10.88883289 7.01753666 -12.71875 9.19140625 C-15.28345571 11.83613012 -17.00641167 12.44555176 -20.6796875 12.61328125 C-22.41337773 12.55496697 -24.14604344 12.45318255 -25.875 12.3125 C-26.76888428 12.25578125 -27.66276855 12.1990625 -28.58374023 12.140625 C-34.65004273 11.57823809 -38.61888294 10.41561155 -42.66015625 5.59375 C-44.00994234 3.7063118 -44.00994234 3.7063118 -47 3 C-48.32 5.31 -49.64 7.62 -51 10 C-52 7 -52 7 -51.22265625 5.17578125 C-50.1484375 3.45052083 -49.07421875 1.72526042 -48 0 C-44.73742047 1.05554044 -42.9552062 2.04362047 -40.46484375 4.46875 C-36.36289359 7.94404839 -31.90454129 8.33300435 -26.6875 8.8125 C-25.2789978 8.94833496 -25.2789978 8.94833496 -23.84204102 9.08691406 C-19.48133641 9.34743655 -16.73366971 9.36240448 -12.765625 7.40234375 C-10.59190205 5.39274418 -8.85018265 3.30046806 -7 1 C-3.98382158 -0.9759165 -3.54891296 -1.18297099 0 0 Z " fill="#85430E" transform="translate(231,79)"/>
<path d="M0 0 C0.495 1.485 0.495 1.485 1 3 C-1.58302674 5.99703102 -4.55305168 7.4265015 -8.0625 9.1875 C-15.70877105 13.21994686 -22.99274287 17.80804789 -28 25 C-29.32 24.67 -30.64 24.34 -32 24 C-24.07124709 13.82521811 -13.83108448 7.01349326 -2 2 C-1.34 2 -0.68 2 0 2 C0 1.34 0 0.68 0 0 Z " fill="#7C401C" transform="translate(178,89)"/>
<path d="M0 0 C2.91289646 0.08473881 3.77703881 0.15009119 6.125 2 C7.38106608 5.18203406 6.98320253 7.11712952 6.0625 10.375 C4.0625 12.375 4.0625 12.375 2.1875 12.640625 C1.48625 12.63546875 0.785 12.6303125 0.0625 12.625 C-0.63875 12.63015625 -1.34 12.6353125 -2.0625 12.640625 C-3.9375 12.375 -3.9375 12.375 -5.9375 10.375 C-6.203125 8.5 -6.203125 8.5 -6.1875 6.375 C-6.19265625 5.67375 -6.1978125 4.9725 -6.203125 4.25 C-5.64141538 0.2849909 -3.70326965 0.35269235 0 0 Z M-1.9375 2.375 C-3.20753323 3.42810277 -3.20753323 3.42810277 -3.125 5.8125 C-3.20589983 8.54234675 -3.20589983 8.54234675 -0.9375 10.375 C1.17070797 10.0564823 1.17070797 10.0564823 3.0625 9.375 C3.0625 7.395 3.0625 5.415 3.0625 3.375 C1.40635343 2.99281233 -0.26207024 2.66104898 -1.9375 2.375 Z " fill="#333333" transform="translate(194.9375,302.625)"/>
<path d="M0 0 C1.21816406 0.03480469 1.21816406 0.03480469 2.4609375 0.0703125 C3.68683594 0.09738281 3.68683594 0.09738281 4.9375 0.125 C5.87722656 0.15980469 5.87722656 0.15980469 6.8359375 0.1953125 C6.5059375 1.1853125 6.1759375 2.1753125 5.8359375 3.1953125 C4.1859375 3.1953125 2.5359375 3.1953125 0.8359375 3.1953125 C0.5059375 4.8453125 0.1759375 6.4953125 -0.1640625 8.1953125 C1.1559375 8.8553125 2.4759375 9.5153125 3.8359375 10.1953125 C3.8359375 9.2053125 3.8359375 8.2153125 3.8359375 7.1953125 C3.1759375 7.1953125 2.5159375 7.1953125 1.8359375 7.1953125 C1.8359375 6.5353125 1.8359375 5.8753125 1.8359375 5.1953125 C3.4859375 5.1953125 5.1359375 5.1953125 6.8359375 5.1953125 C6.8359375 7.5053125 6.8359375 9.8153125 6.8359375 12.1953125 C5.37800866 12.24930986 3.91951038 12.28810427 2.4609375 12.3203125 C1.64882812 12.34351563 0.83671875 12.36671875 0 12.390625 C-2.1640625 12.1953125 -2.1640625 12.1953125 -4.1640625 10.1953125 C-4.4296875 8.3203125 -4.4296875 8.3203125 -4.4140625 6.1953125 C-4.41921875 5.4940625 -4.424375 4.7928125 -4.4296875 4.0703125 C-4.01586967 1.14924547 -2.88608609 0.26047708 0 0 Z " fill="#333333" transform="translate(169.1640625,302.8046875)"/>
<path d="M0 0 C1 2 1 2 0.4765625 3.85546875 C0.05503906 5.00982422 0.05503906 5.00982422 -0.375 6.1875 C-2.26645942 11.99758835 -2.40293724 17.63072487 -2.49609375 23.6796875 C-3.0747375 27.49245642 -4.02712964 28.64770894 -7 31 C-7.33793731 18.85303128 -6.44120205 10.39934529 0 0 Z " fill="#CD6912" transform="translate(214,91)"/>
<path d="M0 0 C0.33 0.66 0.66 1.32 1 2 C-7.22967562 8.41500827 -15.53015267 14.21749911 -26 16 C-24.40681989 12.29950597 -22.82235369 10.66206613 -19.19921875 9.12109375 C-17.70155522 8.54344242 -16.19729145 7.98266684 -14.6875 7.4375 C-9.30115254 5.43446656 -4.66449005 3.38898561 0 0 Z " fill="#D16B12" transform="translate(235,107)"/>
<path d="M0 0 C0.33 0 0.66 0 1 0 C1.18175781 0.95519531 1.36351562 1.91039062 1.55078125 2.89453125 C3.06802633 10.6986175 4.76145623 18.36354926 7 26 C1.39381197 21.03451917 -0.31549708 13.20755814 -1.01953125 6.0078125 C-0.99862224 3.85836625 -0.60407401 2.05661838 0 0 Z " fill="#D76D05" transform="translate(183,187)"/>
<path d="M0 0 C0.99 0 1.98 0 3 0 C3 3.3 3 6.6 3 10 C4.65 10 6.3 10 8 10 C8 10.66 8 11.32 8 12 C5.36 12 2.72 12 0 12 C0 8.04 0 4.08 0 0 Z " fill="#333333" transform="translate(179,303)"/>
<path d="M0 0 C1.65 0.33 3.3 0.66 5 1 C4.67 2.65 4.34 4.3 4 6 C2.35 5.67 0.7 5.34 -1 5 C-0.67 3.35 -0.34 1.7 0 0 Z " fill="#F48000" transform="translate(168,177)"/>
<path d="M0 0 C1.98 0.495 1.98 0.495 4 1 C3.67 2.32 3.34 3.64 3 5 C1.68 4.67 0.36 4.34 -1 4 C-0.67 2.68 -0.34 1.36 0 0 Z " fill="#F48000" transform="translate(239,151)"/>
</svg>
